<mxfile host="app.diagrams.net" modified="2023-12-27T19:18:29.279Z" agent="Mozilla/5.0 (Windows NT 10.0; Win64; x64; rv:121.0) Gecko/20100101 Firefox/121.0" etag="qeNntc43DgkxtqM-xTv-" version="22.1.14" type="github">
  <diagram name="Seite-1" id="R4thf_7pslw_C90WijEA">
    <mxGraphModel dx="1434" dy="734" grid="1" gridSize="10" guides="1" tooltips="1" connect="1" arrows="1" fold="1" page="1" pageScale="1" pageWidth="827" pageHeight="1169" math="0" shadow="0">
      <root>
        <mxCell id="0" />
        <mxCell id="1" parent="0" />
        <mxCell id="1f3p_RCjUcqTFZWA6sA2-24" value="Korrekturmeldungssystem" style="swimlane;childLayout=stackLayout;resizeParent=1;resizeParentMax=0;horizontal=1;startSize=20;horizontalStack=0;html=1;" vertex="1" parent="1">
          <mxGeometry x="40" y="550" width="750" height="380" as="geometry" />
        </mxCell>
        <mxCell id="1f3p_RCjUcqTFZWA6sA2-25" value="APP Form" style="swimlane;startSize=20;horizontal=0;html=1;" vertex="1" parent="1f3p_RCjUcqTFZWA6sA2-24">
          <mxGeometry y="20" width="750" height="120" as="geometry" />
        </mxCell>
        <mxCell id="1f3p_RCjUcqTFZWA6sA2-2" value="View Fehler Melden" style="whiteSpace=wrap;html=1;aspect=fixed;" vertex="1" parent="1f3p_RCjUcqTFZWA6sA2-25">
          <mxGeometry x="374" y="20" width="80" height="80" as="geometry" />
        </mxCell>
        <mxCell id="1f3p_RCjUcqTFZWA6sA2-31" style="edgeStyle=orthogonalEdgeStyle;rounded=0;orthogonalLoop=1;jettySize=auto;html=1;exitX=1;exitY=0.5;exitDx=0;exitDy=0;" edge="1" parent="1f3p_RCjUcqTFZWA6sA2-25" source="1f3p_RCjUcqTFZWA6sA2-10" target="1f3p_RCjUcqTFZWA6sA2-2">
          <mxGeometry relative="1" as="geometry" />
        </mxCell>
        <mxCell id="1f3p_RCjUcqTFZWA6sA2-10" value="Übersicht" style="rounded=0;whiteSpace=wrap;html=1;" vertex="1" parent="1f3p_RCjUcqTFZWA6sA2-25">
          <mxGeometry x="214" y="25" width="100" height="70" as="geometry" />
        </mxCell>
        <mxCell id="1f3p_RCjUcqTFZWA6sA2-13" value="" style="endArrow=classic;html=1;rounded=0;" edge="1" parent="1f3p_RCjUcqTFZWA6sA2-25" source="1f3p_RCjUcqTFZWA6sA2-14">
          <mxGeometry width="50" height="50" relative="1" as="geometry">
            <mxPoint x="164" y="110" as="sourcePoint" />
            <mxPoint x="214" y="60" as="targetPoint" />
          </mxGeometry>
        </mxCell>
        <mxCell id="1f3p_RCjUcqTFZWA6sA2-14" value="Anmeldung" style="whiteSpace=wrap;html=1;aspect=fixed;" vertex="1" parent="1f3p_RCjUcqTFZWA6sA2-25">
          <mxGeometry x="70" y="20" width="80" height="80" as="geometry" />
        </mxCell>
        <mxCell id="1f3p_RCjUcqTFZWA6sA2-26" value="&lt;div&gt;APP Webhook&lt;/div&gt;" style="swimlane;startSize=20;horizontal=0;html=1;" vertex="1" parent="1f3p_RCjUcqTFZWA6sA2-24">
          <mxGeometry y="140" width="750" height="120" as="geometry" />
        </mxCell>
        <mxCell id="1f3p_RCjUcqTFZWA6sA2-3" value="Webhook" style="whiteSpace=wrap;html=1;aspect=fixed;" vertex="1" parent="1f3p_RCjUcqTFZWA6sA2-26">
          <mxGeometry x="374" y="15" width="76" height="76" as="geometry" />
        </mxCell>
        <mxCell id="1f3p_RCjUcqTFZWA6sA2-4" value="Datenbank" style="shape=cylinder3;whiteSpace=wrap;html=1;boundedLbl=1;backgroundOutline=1;size=15;" vertex="1" parent="1f3p_RCjUcqTFZWA6sA2-26">
          <mxGeometry x="614" y="10" width="66" height="90" as="geometry" />
        </mxCell>
        <mxCell id="1f3p_RCjUcqTFZWA6sA2-33" style="edgeStyle=orthogonalEdgeStyle;rounded=0;orthogonalLoop=1;jettySize=auto;html=1;exitX=1;exitY=0.5;exitDx=0;exitDy=0;entryX=0;entryY=0.5;entryDx=0;entryDy=0;entryPerimeter=0;" edge="1" parent="1f3p_RCjUcqTFZWA6sA2-26" source="1f3p_RCjUcqTFZWA6sA2-3" target="1f3p_RCjUcqTFZWA6sA2-4">
          <mxGeometry relative="1" as="geometry" />
        </mxCell>
        <mxCell id="1f3p_RCjUcqTFZWA6sA2-27" value="APP Backend" style="swimlane;startSize=20;horizontal=0;html=1;" vertex="1" parent="1f3p_RCjUcqTFZWA6sA2-24">
          <mxGeometry y="260" width="750" height="120" as="geometry" />
        </mxCell>
        <mxCell id="1f3p_RCjUcqTFZWA6sA2-1" value="Anmeldung" style="whiteSpace=wrap;html=1;aspect=fixed;" vertex="1" parent="1f3p_RCjUcqTFZWA6sA2-27">
          <mxGeometry x="80" y="20" width="80" height="80" as="geometry" />
        </mxCell>
        <mxCell id="1f3p_RCjUcqTFZWA6sA2-5" value="backend" style="whiteSpace=wrap;html=1;aspect=fixed;" vertex="1" parent="1f3p_RCjUcqTFZWA6sA2-27">
          <mxGeometry x="374" y="15" width="80" height="80" as="geometry" />
        </mxCell>
        <mxCell id="1f3p_RCjUcqTFZWA6sA2-21" style="edgeStyle=orthogonalEdgeStyle;rounded=0;orthogonalLoop=1;jettySize=auto;html=1;exitX=1;exitY=0.5;exitDx=0;exitDy=0;entryX=0;entryY=0.5;entryDx=0;entryDy=0;" edge="1" parent="1f3p_RCjUcqTFZWA6sA2-27" source="1f3p_RCjUcqTFZWA6sA2-18" target="1f3p_RCjUcqTFZWA6sA2-5">
          <mxGeometry relative="1" as="geometry" />
        </mxCell>
        <mxCell id="1f3p_RCjUcqTFZWA6sA2-18" value="Übersicht" style="rounded=0;whiteSpace=wrap;html=1;" vertex="1" parent="1f3p_RCjUcqTFZWA6sA2-27">
          <mxGeometry x="210" y="20" width="100" height="70" as="geometry" />
        </mxCell>
        <mxCell id="1f3p_RCjUcqTFZWA6sA2-22" style="edgeStyle=orthogonalEdgeStyle;rounded=0;orthogonalLoop=1;jettySize=auto;html=1;exitX=1;exitY=0.5;exitDx=0;exitDy=0;entryX=0.02;entryY=0.614;entryDx=0;entryDy=0;entryPerimeter=0;" edge="1" parent="1f3p_RCjUcqTFZWA6sA2-27" source="1f3p_RCjUcqTFZWA6sA2-1" target="1f3p_RCjUcqTFZWA6sA2-18">
          <mxGeometry relative="1" as="geometry" />
        </mxCell>
        <mxCell id="1f3p_RCjUcqTFZWA6sA2-32" style="edgeStyle=orthogonalEdgeStyle;rounded=0;orthogonalLoop=1;jettySize=auto;html=1;exitX=0.5;exitY=1;exitDx=0;exitDy=0;" edge="1" parent="1f3p_RCjUcqTFZWA6sA2-24" source="1f3p_RCjUcqTFZWA6sA2-2" target="1f3p_RCjUcqTFZWA6sA2-3">
          <mxGeometry relative="1" as="geometry" />
        </mxCell>
        <mxCell id="1f3p_RCjUcqTFZWA6sA2-34" style="edgeStyle=orthogonalEdgeStyle;rounded=0;orthogonalLoop=1;jettySize=auto;html=1;exitX=0.5;exitY=1;exitDx=0;exitDy=0;exitPerimeter=0;entryX=1;entryY=0.5;entryDx=0;entryDy=0;" edge="1" parent="1f3p_RCjUcqTFZWA6sA2-24" source="1f3p_RCjUcqTFZWA6sA2-4" target="1f3p_RCjUcqTFZWA6sA2-5">
          <mxGeometry relative="1" as="geometry" />
        </mxCell>
        <mxCell id="1f3p_RCjUcqTFZWA6sA2-36" style="edgeStyle=orthogonalEdgeStyle;rounded=0;orthogonalLoop=1;jettySize=auto;html=1;exitX=0.5;exitY=0;exitDx=0;exitDy=0;entryX=0.44;entryY=0.943;entryDx=0;entryDy=0;entryPerimeter=0;" edge="1" parent="1f3p_RCjUcqTFZWA6sA2-24" source="1f3p_RCjUcqTFZWA6sA2-5" target="1f3p_RCjUcqTFZWA6sA2-10">
          <mxGeometry relative="1" as="geometry">
            <Array as="points">
              <mxPoint x="414" y="240" />
              <mxPoint x="258" y="240" />
            </Array>
          </mxGeometry>
        </mxCell>
      </root>
    </mxGraphModel>
  </diagram>
</mxfile>
